<svg version="1.1" id="Layer_1" xmlns="http://www.w3.org/2000/svg" xmlns:xlink="http://www.w3.org/1999/xlink" x="0px" y="0px"
	 width="100%" viewBox="0 0 1080 1080" enable-background="new 0 0 1080 1080" xml:space="preserve">
<path fill="rgba(18,116,186,0.7)" opacity="1.000000" stroke="#1273BA" stroke-linecap="round" stroke-linejoin="round" stroke-width="80.000000"
	d="
M493.500000,978.500000 
	C493.731232,979.935425 493.977844,979.676331 491.509399,979.441345 
	C475.385681,976.860657 463.582886,966.803650 452.581909,955.917236 
	C438.643707,942.124207 426.924133,926.265015 413.391785,912.103394 
	C400.793304,898.918945 385.968353,888.334229 369.973419,879.548401 
	C360.566101,874.381042 350.936829,869.662048 341.051575,865.380920 
	C324.139191,858.056458 306.694855,852.423767 288.987000,847.547180 
	C273.660980,843.326599 258.170288,839.734253 242.497513,837.014282 
	C227.214127,834.362000 211.932983,831.700562 196.502533,829.977356 
	C180.241302,828.161499 164.209839,825.339539 150.017853,816.471436 
	C138.597794,809.335449 129.851028,799.813171 123.922836,787.537292 
	C117.020500,773.244141 114.019295,758.211548 114.017075,742.500000 
	C113.990601,555.333313 114.022270,368.166656 113.942619,181.000031 
	C113.938026,170.194885 117.190910,160.305908 121.029236,150.511459 
	C128.254822,132.073639 140.721283,118.099876 158.574417,109.657364 
	C169.325989,104.573082 180.749329,100.868721 193.000198,100.977295 
	C204.832596,101.082161 216.675049,100.716110 228.498077,101.065025 
	C247.300674,101.619919 265.937622,103.659172 284.538727,106.768303 
	C296.843353,108.824997 309.025177,111.404488 320.935394,114.731277 
	C336.865448,119.180878 352.520660,124.845177 367.473419,132.055145 
	C386.637024,141.295547 404.626678,152.497208 421.523621,165.469238 
	C432.063202,173.560684 442.119324,182.197586 450.416443,192.566864 
	C458.208862,202.305420 467.735596,209.386902 478.968445,214.568390 
	C484.616486,217.173721 490.409424,218.023712 496.500031,218.016190 
	C525.666687,217.980118 554.836670,217.739304 583.998474,218.116821 
	C597.333862,218.289459 607.856873,212.363281 617.411499,204.393875 
	C627.637390,195.864532 637.010742,186.322174 647.031372,177.535797 
	C670.277100,157.153259 695.932983,140.665649 724.425354,128.327652 
	C743.742554,119.962784 763.736816,114.022400 784.050476,109.213295 
	C797.282410,106.080734 810.909973,104.434723 824.495972,102.962578 
	C843.957520,100.853767 863.485046,101.345039 882.995911,100.842422 
	C897.275024,100.474586 910.720093,103.376740 923.433105,109.147423 
	C936.485046,115.071945 947.346130,124.165192 954.948425,136.531723 
	C961.757019,147.607239 966.162048,159.678894 968.566345,172.487549 
	C968.884277,174.181488 968.988770,175.825623 968.988892,177.500000 
	C969.000671,367.500000 969.074768,557.500061 968.853333,747.499817 
	C968.836182,762.164917 965.026978,776.306824 958.065063,789.534241 
	C947.674622,809.275696 930.975342,820.359436 910.003235,826.012085 
	C900.818909,828.487488 891.348755,829.095581 882.000183,830.501099 
	C873.166077,831.829285 864.321472,833.093628 855.503296,834.520508 
	C846.629028,835.956482 837.800110,837.629150 828.974548,839.371033 
	C811.401917,842.839111 794.128540,847.342834 776.998108,852.493713 
	C759.664856,857.705505 742.678589,864.003479 726.587036,872.171509 
	C709.198608,880.997864 692.558289,891.152771 677.906860,904.396973 
	C666.180786,914.996765 656.337524,927.203491 646.040894,939.035583 
	C634.558899,952.229675 622.820984,965.137695 607.453003,973.917725 
	C600.463684,977.910828 592.878052,979.741516 584.498413,979.654968 
	C554.335815,979.343567 524.166687,979.666687 494.000000,979.750000 
"/>
</svg>